<?xml version="1.0" standalone="no"?>
<!DOCTYPE svg PUBLIC "-//W3C//DTD SVG 20010904//EN"
 "http://www.w3.org/TR/2001/REC-SVG-20010904/DTD/svg10.dtd">
<svg version="1.0" xmlns="http://www.w3.org/2000/svg"
 width="350.000000pt" height="350.000000pt" viewBox="0 0 350.000000 350.000000"
 preserveAspectRatio="xMidYMid meet">

<g transform="translate(0.000000,350.000000) scale(0.100000,-0.100000)"
fill="#000000" stroke="none">
<path d="M1550 3489 c-675 -83 -1232 -531 -1454 -1166 -224 -645 -48 -1370
448 -1841 534 -507 1328 -626 1987 -298 654 326 1038 1028 958 1754 -67 619
-457 1155 -1026 1410 -114 52 -287 104 -413 127 -112 19 -393 28 -500 14z
m498 -258 c634 -136 1102 -631 1196 -1264 70 -470 -88 -943 -428 -1283 -240
-240 -520 -380 -858 -430 -146 -21 -369 -14 -512 16 -604 128 -1059 592 -1183
1205 -13 68 -18 135 -18 280 1 207 11 278 67 454 179 563 674 970 1268 1045
88 11 377 -3 468 -23z"/>
<path d="M1164 2725 c-63 -50 -114 -225 -99 -344 29 -228 154 -337 258 -222
118 131 110 461 -14 566 -41 34 -102 34 -145 0z"/>
<path d="M2191 2725 c-104 -89 -131 -350 -52 -508 38 -76 71 -102 130 -102 39
0 47 5 82 44 96 107 113 334 38 489 -49 101 -131 132 -198 77z"/>
<path d="M784 1635 c-14 -21 -16 -42 -11 -118 8 -121 37 -231 93 -346 156
-326 464 -534 824 -557 533 -35 1004 377 1037 907 5 89 4 98 -16 118 -26 26
-75 27 -100 2 -13 -13 -20 -41 -25 -101 -24 -275 -158 -504 -380 -649 -141
-91 -285 -134 -456 -134 -171 0 -315 43 -456 134 -220 144 -357 376 -380 646
-8 100 -22 123 -74 123 -31 0 -43 -5 -56 -25z"/>
</g>
</svg>
